ffmpeg started on 2025-06-06 at 16:46:06
Report written to "D:\Convert\FFMetrics\reports\psnr_report-6.txt"
Log level: 32
Command line:
ffmpeg -hide_banner -nostdin -i "G:\\\xc0\xed\xe8\xec\xe5\\\xce\xed\xe3\xee\xe8\xed\xe3\xe8\\!_36_\xce\xf1\xe5\xed\xfc_2024\\DreamCast\\\xcf\xeb\xee\xf5\xe0\xff \xef\xee\xe5\xe7\xe4\xea\xe0\\[DC] Acro Trip - 04_Telegram_HEVC.mkv" -i "G:\\\xc0\xed\xe8\xec\xe5\\\xce\xed\xe3\xee\xe8\xed\xe3\xe8\\!_36_\xce\xf1\xe5\xed\xfc_2024\\DreamCast\\\xcf\xeb\xee\xf5\xe0\xff \xef\xee\xe5\xe7\xe4\xea\xe0\\[DC] Acro Trip - 04_Telegram.mp4" -lavfi "[0:v]settb=AVTB,setpts=PTS-STARTPTS,format=pix_fmts=yuv420p10,fps=24000/1001,scale=1920:1080:flags=bicubic[main];[1:v]settb=AVTB,setpts=PTS-STARTPTS,format=pix_fmts=yuv420p,fps=24000/1001,scale=1920:1080:flags=bicubic[ref];[main][ref]psnr=eof_action=endall:stats_file='D\\:/Convert/FFMetrics/logs/psnr_logfile-6.txt'" -f null -
Input #0, matroska,webm, from 'G:\Аниме\Онгоинги\!_36_Осень_2024\DreamCast\Плохая поездка\[DC] Acro Trip - 04_Telegram_HEVC.mkv':
  Metadata:
    COMPATIBLE_BRANDS: isomiso2avc1mp41
    MAJOR_BRAND     : isom
    MINOR_VERSION   : 512
    ENCODER         : Lavf61.7.100
  Duration: 00:23:46.69, start: -0.021000, bitrate: 1765 kb/s
  Stream #0:0: Video: hevc (Main 10), yuv420p10le(tv, bt709, progressive), 1920x1080 [SAR 1:1 DAR 16:9], 23.98 fps, 23.98 tbr, 1k tbn (default)
      Metadata:
        HANDLER_NAME    : VideoHandler
        VENDOR_ID       : [0][0][0][0]
        ENCODER         : Lavc61.19.100 libx265
        BPS             : 1568088
        DURATION        : 00:23:46.591708333
        NUMBER_OF_FRAMES: 34204
        NUMBER_OF_BYTES : 279627680
        _STATISTICS_WRITING_APP: mkvpropedit v66.0.0 ('Josie') 64-bit
        _STATISTICS_WRITING_DATE_UTC: 2025-06-02 12:04:02
        _STATISTICS_TAGS: BPS DURATION NUMBER_OF_FRAMES NUMBER_OF_BYTES
  Stream #0:1: Audio: aac (LC), 48000 Hz, stereo, fltp (default)
      Metadata:
        HANDLER_NAME    : SoundHandler
        VENDOR_ID       : [0][0][0][0]
        ENCODER         : Lavc61.19.100 aac
        BPS             : 193555
        DURATION        : 00:23:46.688000000
        NUMBER_OF_FRAMES: 66877
        NUMBER_OF_BYTES : 34517861
        _STATISTICS_WRITING_APP: mkvpropedit v66.0.0 ('Josie') 64-bit
        _STATISTICS_WRITING_DATE_UTC: 2025-06-02 12:04:02
        _STATISTICS_TAGS: BPS DURATION NUMBER_OF_FRAMES NUMBER_OF_BYTES
Input #1, mov,mp4,m4a,3gp,3g2,mj2, from 'G:\Аниме\Онгоинги\!_36_Осень_2024\DreamCast\Плохая поездка\[DC] Acro Trip - 04_Telegram.mp4':
  Metadata:
    major_brand     : isom
    minor_version   : 512
    compatible_brands: isomiso2avc1mp41
    encoder         : Lavf61.1.100
  Duration: 00:23:46.66, start: 0.000000, bitrate: 3891 kb/s
  Stream #1:0[0x1](und): Video: h264 (High) (avc1 / 0x31637661), yuv420p(tv, bt709, progressive), 1920x1080 [SAR 1:1 DAR 16:9], 3743 kb/s, 23.98 fps, 23.98 tbr, 24k tbn (default)
      Metadata:
        handler_name    : VideoHandler
        vendor_id       : [0][0][0][0]
        encoder         : Lavc61.3.100 h264_qsv
  Stream #1:1[0x2](und): Audio: aac (HE-AACv2) (mp4a / 0x6134706D), 48000 Hz, stereo, fltp, 144 kb/s (default)
      Metadata:
        handler_name    : SoundHandler
        vendor_id       : [0][0][0][0]
Stream mapping:
  Stream #0:0 (hevc) -> settb:default
  Stream #1:0 (h264) -> settb:default
  psnr:default -> Stream #0:0 (wrapped_avframe)
  Stream #0:1 -> #0:1 (aac (native) -> pcm_s16le (native))
Output #0, null, to 'pipe:':
  Metadata:
    COMPATIBLE_BRANDS: isomiso2avc1mp41
    MAJOR_BRAND     : isom
    MINOR_VERSION   : 512
    encoder         : Lavf61.7.100
  Stream #0:0: Video: wrapped_avframe, yuv420p10le(tv, bt709, progressive), 1920x1080 [SAR 1:1 DAR 16:9], q=2-31, 200 kb/s, 23.98 fps, 23.98 tbn
      Metadata:
        encoder         : Lavc61.19.100 wrapped_avframe
  Stream #0:1: Audio: pcm_s16le, 48000 Hz, stereo, s16, 1536 kb/s (default)
      Metadata:
        HANDLER_NAME    : SoundHandler
        VENDOR_ID       : [0][0][0][0]
        _STATISTICS_TAGS: BPS DURATION NUMBER_OF_FRAMES NUMBER_OF_BYTES
        BPS             : 193555
        DURATION        : 00:23:46.688000000
        NUMBER_OF_FRAMES: 66877
        NUMBER_OF_BYTES : 34517861
        _STATISTICS_WRITING_APP: mkvpropedit v66.0.0 ('Josie') 64-bit
        _STATISTICS_WRITING_DATE_UTC: 2025-06-02 12:04:02
        encoder         : Lavc61.19.100 pcm_s16le
frame=  155 fps=0.0 q=-0.0 size=N/A time=00:00:06.46 bitrate=N/A speed=12.6x    frame=  366 fps=353 q=-0.0 size=N/A time=00:00:15.26 bitrate=N/A speed=14.7x    frame=  577 fps=371 q=-0.0 size=N/A time=00:00:24.06 bitrate=N/A speed=15.5x    frame=  778 fps=377 q=-0.0 size=N/A time=00:00:32.44 bitrate=N/A speed=15.7x    frame=  975 fps=378 q=-0.0 size=N/A time=00:00:40.66 bitrate=N/A speed=15.8x    frame= 1211 fps=391 q=-0.0 size=N/A time=00:00:50.50 bitrate=N/A speed=16.3x    frame= 1407 fps=389 q=-0.0 size=N/A time=00:00:58.68 bitrate=N/A speed=16.2x    frame= 1612 fps=390 q=-0.0 size=N/A time=00:01:07.23 bitrate=N/A speed=16.3x    frame= 1847 fps=397 q=-0.0 size=N/A time=00:01:17.03 bitrate=N/A speed=16.6x    frame= 2026 fps=392 q=-0.0 size=N/A time=00:01:24.50 bitrate=N/A speed=16.4x    frame= 2232 fps=394 q=-0.0 size=N/A time=00:01:33.09 bitrate=N/A speed=16.4x    frame= 2452 fps=396 q=-0.0 size=N/A time=00:01:42.26 bitrate=N/A speed=16.5x    frame= 2682 fps=400 q=-0.0 size=N/A time=00:01:51.86 bitrate=N/A speed=16.7x    frame= 2908 fps=403 q=-0.0 size=N/A time=00:02:01.28 bitrate=N/A speed=16.8x    frame= 3118 fps=403 q=-0.0 size=N/A time=00:02:10.04 bitrate=N/A speed=16.8x    frame= 3333 fps=404 q=-0.0 size=N/A time=00:02:19.01 bitrate=N/A speed=16.8x    frame= 3573 fps=407 q=-0.0 size=N/A time=00:02:29.02 bitrate=N/A speed=  17x    frame= 3748 fps=403 q=-0.0 size=N/A time=00:02:36.32 bitrate=N/A speed=16.8x    frame= 3948 fps=403 q=-0.0 size=N/A time=00:02:44.66 bitrate=N/A speed=16.8x    frame= 4182 fps=405 q=-0.0 size=N/A time=00:02:54.42 bitrate=N/A speed=16.9x    frame= 4414 fps=407 q=-0.0 size=N/A time=00:03:04.10 bitrate=N/A speed=  17x    frame= 4656 fps=410 q=-0.0 size=N/A time=00:03:14.19 bitrate=N/A speed=17.1x    frame= 4886 fps=412 q=-0.0 size=N/A time=00:03:23.78 bitrate=N/A speed=17.2x    frame= 5119 fps=413 q=-0.0 size=N/A time=00:03:33.50 bitrate=N/A speed=17.2x    frame= 5368 fps=416 q=-0.0 size=N/A time=00:03:43.89 bitrate=N/A speed=17.4x    frame= 5615 fps=419 q=-0.0 size=N/A time=00:03:54.19 bitrate=N/A speed=17.5x    frame= 5851 fps=420 q=-0.0 size=N/A time=00:04:04.03 bitrate=N/A speed=17.5x    frame= 6079 fps=421 q=-0.0 size=N/A time=00:04:13.54 bitrate=N/A speed=17.6x    frame= 6265 fps=419 q=-0.0 size=N/A time=00:04:21.30 bitrate=N/A speed=17.5x    frame= 6453 fps=417 q=-0.0 size=N/A time=00:04:29.14 bitrate=N/A speed=17.4x    frame= 6667 fps=417 q=-0.0 size=N/A time=00:04:38.06 bitrate=N/A speed=17.4x    frame= 6868 fps=416 q=-0.0 size=N/A time=00:04:46.45 bitrate=N/A speed=17.4x    frame= 7045 fps=414 q=-0.0 size=N/A time=00:04:53.83 bitrate=N/A speed=17.3x    frame= 7235 fps=413 q=-0.0 size=N/A time=00:05:01.75 bitrate=N/A speed=17.2x    frame= 7419 fps=411 q=-0.0 size=N/A time=00:05:09.43 bitrate=N/A speed=17.1x    frame= 7592 fps=409 q=-0.0 size=N/A time=00:05:16.64 bitrate=N/A speed=17.1x    frame= 7743 fps=406 q=-0.0 size=N/A time=00:05:22.94 bitrate=N/A speed=16.9x    frame= 7911 fps=404 q=-0.0 size=N/A time=00:05:29.95 bitrate=N/A speed=16.8x    frame= 8067 fps=401 q=-0.0 size=N/A time=00:05:36.46 bitrate=N/A speed=16.7x    frame= 8228 fps=399 q=-0.0 size=N/A time=00:05:43.17 bitrate=N/A speed=16.6x    frame= 8450 fps=400 q=-0.0 size=N/A time=00:05:52.43 bitrate=N/A speed=16.7x    frame= 8654 fps=400 q=-0.0 size=N/A time=00:06:00.94 bitrate=N/A speed=16.7x    frame= 8889 fps=401 q=-0.0 size=N/A time=00:06:10.74 bitrate=N/A speed=16.7x    frame= 9154 fps=403 q=-0.0 size=N/A time=00:06:21.79 bitrate=N/A speed=16.8x    frame= 9390 fps=405 q=-0.0 size=N/A time=00:06:31.64 bitrate=N/A speed=16.9x    frame= 9650 fps=407 q=-0.0 size=N/A time=00:06:42.48 bitrate=N/A speed=  17x    frame= 9899 fps=409 q=-0.0 size=N/A time=00:06:52.87 bitrate=N/A speed=  17x    frame=10140 fps=410 q=-0.0 size=N/A time=00:07:02.92 bitrate=N/A speed=17.1x    frame=10385 fps=411 q=-0.0 size=N/A time=00:07:13.14 bitrate=N/A speed=17.1x    frame=10626 fps=412 q=-0.0 size=N/A time=00:07:23.19 bitrate=N/A speed=17.2x    frame=10829 fps=412 q=-0.0 size=N/A time=00:07:31.65 bitrate=N/A speed=17.2x    frame=11040 fps=412 q=-0.0 size=N/A time=00:07:40.46 bitrate=N/A speed=17.2x    frame=11280 fps=413 q=-0.0 size=N/A time=00:07:50.47 bitrate=N/A speed=17.2x    frame=11502 fps=413 q=-0.0 size=N/A time=00:07:59.72 bitrate=N/A speed=17.2x    frame=11754 fps=414 q=-0.0 size=N/A time=00:08:10.23 bitrate=N/A speed=17.3x    frame=11948 fps=414 q=-0.0 size=N/A time=00:08:18.33 bitrate=N/A speed=17.3x    frame=12168 fps=414 q=-0.0 size=N/A time=00:08:27.50 bitrate=N/A speed=17.3x    frame=12393 fps=414 q=-0.0 size=N/A time=00:08:36.89 bitrate=N/A speed=17.3x    frame=12612 fps=414 q=-0.0 size=N/A time=00:08:46.02 bitrate=N/A speed=17.3x    frame=12859 fps=416 q=-0.0 size=N/A time=00:08:56.32 bitrate=N/A speed=17.3x    frame=13100 fps=416 q=-0.0 size=N/A time=00:09:06.37 bitrate=N/A speed=17.4x    frame=13311 fps=416 q=-0.0 size=N/A time=00:09:15.17 bitrate=N/A speed=17.4x    frame=13504 fps=416 q=-0.0 size=N/A time=00:09:23.22 bitrate=N/A speed=17.3x    frame=13714 fps=415 q=-0.0 size=N/A time=00:09:31.98 bitrate=N/A speed=17.3x    frame=13902 fps=415 q=-0.0 size=N/A time=00:09:39.82 bitrate=N/A speed=17.3x    frame=14092 fps=414 q=-0.0 size=N/A time=00:09:47.75 bitrate=N/A speed=17.3x    frame=14286 fps=413 q=-0.0 size=N/A time=00:09:55.84 bitrate=N/A speed=17.2x    frame=14482 fps=413 q=-0.0 size=N/A time=00:10:04.02 bitrate=N/A speed=17.2x    frame=14700 fps=413 q=-0.0 size=N/A time=00:10:13.11 bitrate=N/A speed=17.2x    frame=14912 fps=413 q=-0.0 size=N/A time=00:10:21.95 bitrate=N/A speed=17.2x    frame=15129 fps=413 q=-0.0 size=N/A time=00:10:31.00 bitrate=N/A speed=17.2x    frame=15295 fps=412 q=-0.0 size=N/A time=00:10:37.92 bitrate=N/A speed=17.2x    frame=15497 fps=412 q=-0.0 size=N/A time=00:10:46.35 bitrate=N/A speed=17.2x    frame=15683 fps=411 q=-0.0 size=N/A time=00:10:54.11 bitrate=N/A speed=17.1x    frame=15893 fps=411 q=-0.0 size=N/A time=00:11:02.87 bitrate=N/A speed=17.1x    frame=16106 fps=411 q=-0.0 size=N/A time=00:11:11.75 bitrate=N/A speed=17.1x    frame=16315 fps=411 q=-0.0 size=N/A time=00:11:20.47 bitrate=N/A speed=17.1x    frame=16540 fps=411 q=-0.0 size=N/A time=00:11:29.85 bitrate=N/A speed=17.2x    frame=16771 fps=412 q=-0.0 size=N/A time=00:11:39.49 bitrate=N/A speed=17.2x    frame=16984 fps=412 q=-0.0 size=N/A time=00:11:48.37 bitrate=N/A speed=17.2x    frame=17244 fps=413 q=-0.0 size=N/A time=00:11:59.21 bitrate=N/A speed=17.2x    frame=17451 fps=413 q=-0.0 size=N/A time=00:12:07.85 bitrate=N/A speed=17.2x    frame=17641 fps=412 q=-0.0 size=N/A time=00:12:15.77 bitrate=N/A speed=17.2x    frame=17835 fps=412 q=-0.0 size=N/A time=00:12:23.86 bitrate=N/A speed=17.2x    frame=18029 fps=411 q=-0.0 size=N/A time=00:12:31.95 bitrate=N/A speed=17.2x    frame=18222 fps=411 q=-0.0 size=N/A time=00:12:40.00 bitrate=N/A speed=17.1x    frame=18398 fps=410 q=-0.0 size=N/A time=00:12:47.34 bitrate=N/A speed=17.1x    frame=18574 fps=409 q=-0.0 size=N/A time=00:12:54.69 bitrate=N/A speed=17.1x    frame=18765 fps=409 q=-0.0 size=N/A time=00:13:02.65 bitrate=N/A speed=17.1x    frame=18941 fps=408 q=-0.0 size=N/A time=00:13:09.99 bitrate=N/A speed=  17x    frame=19117 fps=407 q=-0.0 size=N/A time=00:13:17.33 bitrate=N/A speed=  17x    frame=19303 fps=407 q=-0.0 size=N/A time=00:13:25.09 bitrate=N/A speed=  17x    frame=19497 fps=407 q=-0.0 size=N/A time=00:13:33.18 bitrate=N/A speed=  17x    frame=19695 fps=406 q=-0.0 size=N/A time=00:13:41.44 bitrate=N/A speed=16.9x    frame=19884 fps=406 q=-0.0 size=N/A time=00:13:49.32 bitrate=N/A speed=16.9x    frame=20075 fps=405 q=-0.0 size=N/A time=00:13:57.29 bitrate=N/A speed=16.9x    frame=20263 fps=405 q=-0.0 size=N/A time=00:14:05.13 bitrate=N/A speed=16.9x    frame=20428 fps=404 q=-0.0 size=N/A time=00:14:12.01 bitrate=N/A speed=16.9x    frame=20611 fps=404 q=-0.0 size=N/A time=00:14:19.65 bitrate=N/A speed=16.8x    frame=20799 fps=403 q=-0.0 size=N/A time=00:14:27.49 bitrate=N/A speed=16.8x    frame=21002 fps=403 q=-0.0 size=N/A time=00:14:35.95 bitrate=N/A speed=16.8x    frame=21185 fps=403 q=-0.0 size=N/A time=00:14:43.59 bitrate=N/A speed=16.8x    frame=21387 fps=402 q=-0.0 size=N/A time=00:14:52.01 bitrate=N/A speed=16.8x    frame=21586 fps=402 q=-0.0 size=N/A time=00:15:00.31 bitrate=N/A speed=16.8x    frame=21765 fps=402 q=-0.0 size=N/A time=00:15:07.78 bitrate=N/A speed=16.8x    frame=21948 fps=401 q=-0.0 size=N/A time=00:15:15.41 bitrate=N/A speed=16.7x    frame=22128 fps=401 q=-0.0 size=N/A time=00:15:22.92 bitrate=N/A speed=16.7x    frame=22320 fps=401 q=-0.0 size=N/A time=00:15:30.93 bitrate=N/A speed=16.7x    frame=22493 fps=400 q=-0.0 size=N/A time=00:15:38.14 bitrate=N/A speed=16.7x    frame=22644 fps=399 q=-0.0 size=N/A time=00:15:44.44 bitrate=N/A speed=16.6x    frame=22833 fps=399 q=-0.0 size=N/A time=00:15:52.32 bitrate=N/A speed=16.6x    frame=23022 fps=398 q=-0.0 size=N/A time=00:16:00.20 bitrate=N/A speed=16.6x    frame=23203 fps=398 q=-0.0 size=N/A time=00:16:07.75 bitrate=N/A speed=16.6x    frame=23383 fps=398 q=-0.0 size=N/A time=00:16:15.26 bitrate=N/A speed=16.6x    frame=23577 fps=397 q=-0.0 size=N/A time=00:16:23.35 bitrate=N/A speed=16.6x    frame=23763 fps=397 q=-0.0 size=N/A time=00:16:31.11 bitrate=N/A speed=16.6x    frame=23948 fps=397 q=-0.0 size=N/A time=00:16:38.83 bitrate=N/A speed=16.5x    frame=24143 fps=397 q=-0.0 size=N/A time=00:16:46.96 bitrate=N/A speed=16.5x    frame=24322 fps=396 q=-0.0 size=N/A time=00:16:54.43 bitrate=N/A speed=16.5x    frame=24515 fps=396 q=-0.0 size=N/A time=00:17:02.47 bitrate=N/A speed=16.5x    frame=24724 fps=396 q=-0.0 size=N/A time=00:17:11.19 bitrate=N/A speed=16.5x    frame=24929 fps=396 q=-0.0 size=N/A time=00:17:19.74 bitrate=N/A speed=16.5x    frame=25175 fps=397 q=-0.0 size=N/A time=00:17:30.00 bitrate=N/A speed=16.5x    frame=25427 fps=397 q=-0.0 size=N/A time=00:17:40.51 bitrate=N/A speed=16.6x    frame=25667 fps=398 q=-0.0 size=N/A time=00:17:50.52 bitrate=N/A speed=16.6x    frame=25914 fps=399 q=-0.0 size=N/A time=00:18:00.82 bitrate=N/A speed=16.6x    frame=26121 fps=399 q=-0.0 size=N/A time=00:18:09.46 bitrate=N/A speed=16.6x    frame=26320 fps=399 q=-0.0 size=N/A time=00:18:17.76 bitrate=N/A speed=16.6x    frame=26536 fps=399 q=-0.0 size=N/A time=00:18:26.77 bitrate=N/A speed=16.6x    frame=26737 fps=399 q=-0.0 size=N/A time=00:18:35.15 bitrate=N/A speed=16.6x    frame=26948 fps=399 q=-0.0 size=N/A time=00:18:43.95 bitrate=N/A speed=16.6x    frame=27139 fps=399 q=-0.0 size=N/A time=00:18:51.92 bitrate=N/A speed=16.6x    frame=27383 fps=399 q=-0.0 size=N/A time=00:19:02.09 bitrate=N/A speed=16.6x    frame=27621 fps=400 q=-0.0 size=N/A time=00:19:12.02 bitrate=N/A speed=16.7x    frame=27865 fps=400 q=-0.0 size=N/A time=00:19:22.20 bitrate=N/A speed=16.7x    frame=28098 fps=400 q=-0.0 size=N/A time=00:19:31.92 bitrate=N/A speed=16.7x    frame=28342 fps=401 q=-0.0 size=N/A time=00:19:42.09 bitrate=N/A speed=16.7x    frame=28550 fps=401 q=-0.0 size=N/A time=00:19:50.77 bitrate=N/A speed=16.7x    frame=28770 fps=401 q=-0.0 size=N/A time=00:19:59.94 bitrate=N/A speed=16.7x    frame=28973 fps=401 q=-0.0 size=N/A time=00:20:08.41 bitrate=N/A speed=16.7x    frame=29198 fps=401 q=-0.0 size=N/A time=00:20:17.79 bitrate=N/A speed=16.7x    frame=29434 fps=402 q=-0.0 size=N/A time=00:20:27.64 bitrate=N/A speed=16.8x    frame=29667 fps=402 q=-0.0 size=N/A time=00:20:37.36 bitrate=N/A speed=16.8x    frame=29864 fps=402 q=-0.0 size=N/A time=00:20:45.57 bitrate=N/A speed=16.8x    frame=30086 fps=402 q=-0.0 size=N/A time=00:20:54.83 bitrate=N/A speed=16.8x    frame=30311 fps=402 q=-0.0 size=N/A time=00:21:04.22 bitrate=N/A speed=16.8x    frame=30543 fps=403 q=-0.0 size=N/A time=00:21:13.89 bitrate=N/A speed=16.8x    frame=30794 fps=403 q=-0.0 size=N/A time=00:21:24.36 bitrate=N/A speed=16.8x    frame=31060 fps=404 q=-0.0 size=N/A time=00:21:35.46 bitrate=N/A speed=16.9x    frame=31319 fps=405 q=-0.0 size=N/A time=00:21:46.26 bitrate=N/A speed=16.9x    frame=31528 fps=405 q=-0.0 size=N/A time=00:21:54.98 bitrate=N/A speed=16.9x    frame=31767 fps=405 q=-0.0 size=N/A time=00:22:04.94 bitrate=N/A speed=16.9x    frame=32012 fps=406 q=-0.0 size=N/A time=00:22:15.16 bitrate=N/A speed=16.9x    frame=32247 fps=406 q=-0.0 size=N/A time=00:22:24.96 bitrate=N/A speed=16.9x    frame=32471 fps=406 q=-0.0 size=N/A time=00:22:34.31 bitrate=N/A speed=16.9x    frame=32707 fps=406 q=-0.0 size=N/A time=00:22:44.15 bitrate=N/A speed=16.9x    frame=32926 fps=406 q=-0.0 size=N/A time=00:22:53.28 bitrate=N/A speed=  17x    frame=33156 fps=407 q=-0.0 size=N/A time=00:23:02.88 bitrate=N/A speed=  17x    frame=33373 fps=407 q=-0.0 size=N/A time=00:23:11.93 bitrate=N/A speed=  17x    frame=33594 fps=407 q=-0.0 size=N/A time=00:23:21.14 bitrate=N/A speed=  17x    frame=33825 fps=407 q=-0.0 size=N/A time=00:23:30.78 bitrate=N/A speed=  17x    frame=34064 fps=408 q=-0.0 size=N/A time=00:23:40.75 bitrate=N/A speed=  17x    [Parsed_psnr_10 @ 000001a42ca7aec0] PSNR y:47.902043 u:49.794402 v:49.864929 average:48.454615 min:41.650955 max:inf
[out#0/null @ 000001a42cbd5e00] video:14697KiB audio:267508KiB subtitle:0KiB other streams:0KiB global headers:0KiB muxing overhead: unknown
frame=34204 fps=408 q=-0.0 Lsize=N/A time=00:23:46.59 bitrate=N/A speed=  17x    
